<?xml version="1.0" standalone="no"?>
<!DOCTYPE svg PUBLIC "-//W3C//DTD SVG 20010904//EN"
 "http://www.w3.org/TR/2001/REC-SVG-20010904/DTD/svg10.dtd">
<svg version="1.0" xmlns="http://www.w3.org/2000/svg"
 width="608.000000pt" height="598.000000pt" viewBox="0 0 608.000000 598.000000"
 preserveAspectRatio="xMidYMid meet">

<g transform="translate(0.000000,598.000000) scale(0.100000,-0.100000)"
fill="#000000" stroke="none">
<path d="M2830 5238 c-339 -58 -680 -190 -940 -364 -292 -195 -496 -419 -740
-814 -29 -47 -82 -132 -118 -190 -36 -58 -87 -143 -114 -190 -26 -47 -55 -96
-63 -110 -79 -129 -275 -558 -321 -700 -8 -25 -19 -54 -23 -65 -64 -157 -111
-424 -111 -631 0 -194 16 -249 116 -400 86 -129 252 -269 367 -308 63 -21 84
-20 97 4 6 11 13 117 16 247 6 268 28 450 81 673 16 68 38 141 53 175 11 25
24 72 40 147 15 66 49 114 73 105 10 -4 17 -17 17 -34 0 -36 -24 -149 -49
-233 -65 -218 -80 -276 -101 -410 -15 -95 -30 -385 -30 -574 l0 -166 42 -27
c146 -93 368 -183 576 -234 86 -21 84 -31 -21 -87 l-94 -50 -109 1 c-117 0
-174 -12 -268 -58 -136 -67 -298 -225 -426 -417 -74 -111 -213 -377 -254 -486
l-16 -43 71 3 72 3 34 80 c107 253 185 375 325 514 67 66 88 81 113 81 116 -1
282 -184 430 -475 33 -66 68 -139 77 -162 l16 -43 62 0 c73 0 74 -8 -5 155
-114 237 -286 451 -446 556 -44 29 -79 55 -79 59 0 4 41 33 91 65 87 55 93 57
140 52 129 -16 293 -173 430 -413 66 -116 189 -384 204 -447 7 -26 10 -27 66
-27 l59 0 -11 28 c-7 15 -15 37 -20 50 -15 37 -28 71 -39 95 -136 320 -242
497 -384 645 l-81 84 25 17 c13 9 47 34 75 57 132 107 218 154 278 152 25 0
49 2 55 6 11 6 12 3 -42 199 -41 152 -61 310 -77 617 -8 163 -9 263 -1 364 6
76 13 140 16 143 9 9 44 -8 51 -25 3 -9 10 -150 15 -312 5 -162 12 -335 15
-385 12 -180 49 -377 90 -485 62 -164 168 -290 295 -351 81 -39 101 -44 255
-69 68 -11 91 -17 155 -41 27 -10 30 -15 30 -58 0 -25 -9 -77 -20 -116 -26
-95 -26 -211 0 -245 15 -20 23 -23 37 -14 20 12 25 28 58 182 38 177 59 203
110 136 67 -88 156 -339 229 -646 6 -27 9 -28 67 -28 53 0 60 2 55 18 -3 9
-21 71 -41 137 -84 278 -108 338 -215 515 -56 93 -62 133 -22 138 80 12 304
-231 397 -431 39 -85 100 -263 110 -325 8 -50 15 -54 83 -50 l50 3 -39 150
c-21 83 -47 177 -58 209 -25 71 -25 67 -5 59 31 -12 111 -154 219 -385 l17
-38 64 0 63 0 -35 83 c-68 159 -158 317 -237 415 -93 116 -131 186 -116 213
13 24 78 58 133 68 55 10 156 -2 233 -28 58 -20 179 -75 383 -175 164 -81 259
-109 375 -109 83 -1 108 3 145 21 193 94 219 262 94 616 -69 198 -92 338 -60
365 11 9 17 2 34 -36 40 -94 116 -336 142 -453 46 -209 47 -232 15 -348 -27
-99 -3 -139 68 -112 176 66 253 140 324 309 27 63 28 87 8 196 -17 100 -37
161 -77 245 -33 67 -38 76 -127 218 -94 149 -138 285 -161 501 -12 108 -9 357
6 394 3 8 30 32 61 52 234 155 330 476 278 925 -17 147 -28 213 -50 295 -87
327 -263 634 -455 795 -126 104 -226 156 -400 209 -182 56 -188 59 -293 158
-227 214 -477 336 -812 394 -213 36 -542 50 -675 27z m870 -1839 c0 -64 -149
-325 -215 -377 -47 -37 -202 -56 -212 -26 -2 6 37 46 86 88 49 42 142 137 206
211 65 74 121 135 126 135 5 0 9 -14 9 -31z m700 -92 c0 -51 -24 -126 -70
-217 -52 -105 -91 -135 -136 -105 -32 20 -30 46 6 114 33 61 177 251 191 251
5 0 9 -20 9 -43z m576 -3 c11 -43 -6 -242 -26 -306 -10 -33 -31 -73 -46 -89
-23 -24 -30 -26 -50 -17 -20 9 -24 19 -24 53 0 38 42 184 87 300 11 28 23 58
26 68 9 25 26 21 33 -9z m-1781 -394 c3 -5 13 -10 22 -10 8 0 28 -9 44 -21 28
-20 29 -21 13 -47 -8 -15 -45 -49 -80 -77 -76 -58 -106 -109 -77 -131 73 -53
391 -97 454 -63 16 8 63 12 134 12 103 -1 118 -3 250 -47 145 -49 255 -76 306
-76 16 0 67 18 113 39 46 22 96 41 112 43 28 3 29 2 32 -50 2 -41 8 -55 26
-67 23 -15 158 -38 296 -51 41 -3 82 -10 90 -15 12 -6 -9 -32 -92 -114 -161
-159 -198 -222 -263 -446 -93 -325 -130 -397 -272 -529 -191 -176 -458 -351
-658 -430 -11 -4 -32 -12 -47 -18 -15 -6 -56 -14 -91 -18 -87 -9 -163 13 -266
77 -30 19 -27 56 11 115 84 132 96 206 57 357 -24 95 -48 153 -136 337 -75
155 -94 201 -135 325 -31 95 -93 335 -108 420 -38 210 -63 402 -55 414 3 5 31
17 63 26 31 10 80 25 107 35 55 20 140 25 150 10z m910 -24 c78 -27 55 -71
-81 -160 -55 -36 -117 -34 -122 3 -3 18 13 40 69 97 41 41 78 74 84 74 5 0 28
-7 50 -14z m728 -103 c25 -23 21 -45 -18 -90 -73 -85 -172 -127 -206 -87 -17
21 6 64 79 145 53 58 57 60 91 54 20 -4 44 -14 54 -22z"/>
<path d="M3727 2297 c-59 -54 -70 -69 -82 -117 -19 -70 -19 -163 -1 -198 8
-15 26 -34 40 -42 39 -20 73 1 141 85 133 167 150 278 48 320 -57 24 -74 18
-146 -48z"/>
<path d="M4405 1785 c-8 -14 -23 -37 -32 -52 -19 -31 -24 -127 -8 -142 21 -19
52 -21 72 -3 57 49 80 147 47 197 -21 33 -59 33 -79 0z"/>
<path d="M3544 1532 c-23 -16 -44 -58 -44 -90 0 -74 67 -161 156 -203 67 -32
222 -39 274 -12 38 19 49 45 30 68 -10 12 -39 15 -128 15 -108 0 -117 2 -149
26 -34 25 -65 77 -77 126 -8 35 -48 80 -62 70z"/>
</g>
</svg>
